<?xml version="1.0" standalone="no"?>
<!DOCTYPE svg PUBLIC "-//W3C//DTD SVG 1.1//EN" "http://www.w3.org/Graphics/SVG/1.1/DTD/svg11.dtd" >
<svg xmlns="http://www.w3.org/2000/svg">
<metadata>Generated by IcoMoon</metadata>
<defs>
<font id="izejin" horiz-adv-x="1024">
<font-face units-per-em="1024" ascent="960" descent="-64" />
<missing-glyph horiz-adv-x="1024" />
<glyph unicode="&#x20;" horiz-adv-x="512" d="" />
<glyph unicode="&#xe900;" glyph-name="-2x" horiz-adv-x="1182" d="M271.98 910.968l583.567 0.146c0.563 0.073 5.417 0.364 12.1 0.364 30.392 0 72.11-5.894 98.281-33.983 29.337-31.436 46.221-73.278 48.050-77.935l106.161-270.627c1.407-3.42 2.181-7.059 2.462-10.697l2.673-33.692c-7.273-69.733-53.099-120.406-111.271-132.503l-0.025-308.772c0-48.445-35.317-87.961-78.723-87.961h-745.446c-43.407 0-78.653 39.516-78.653 87.961l-0.019 308.828c-58.341 12.124-104.133 61.946-111.137 125.171l2.603 40.896c0.281 3.638 1.126 7.277 2.462 10.624l106.090 270.627c1.829 4.803 18.784 46.645 48.050 78.008 26.241 28.161 67.96 34.056 98.352 34.056 8.794 0 14.422-0.509 14.422-0.509zM880.803 400.349c-15.535-19.136-55.003-33.505-93.169-42.075l0.059-86.024c0-46.476-53.977-84.234-97.314-84.234h-255.623c-43.337 0-97.173 37.758-97.173 84.234l-0.015 86.127c-38.153 8.549-77.611 22.881-93.166 41.972-5.629-6.92-11.828-13.214-18.495-18.835l6.307-313.521h668.006l-0.006 312.79c-7.054 5.848-13.557 12.401-19.411 19.566zM668.482 400.276c-25.538-31.291-63.668-50.938-105.809-51.011-41.138 0.126-79.736 18.784-105.95 51.011-2.652-3.25-4.861-6.362-6.732-9.33l0.119-98.024h225.055c0.901 0 1.441 6.353 1.621 19.060v23.825c-0.136 14.374-0.477 32.362-1.022 53.963-1.897 3.372-4.312 6.852-7.282 10.506zM806.436 799.013l-6.693-0.177-481.017 0.177c-20.246 0-33.744-4.773-38.13-9.546-16.141-17.559-26.714-44.192-26.826-44.428l-83.122-158.66-1.856-22.803c3.206-23.51 26.714-45.724 54.552-45.724 28.173 0.158 51.746 22.447 54.777 51.793 1.575 14.908 13.61 26.162 27.895 26.162s30.651-11.254 32.282-26.162c3.005-29.338 26.559-51.632 54.721-51.793 28.12 0 51.628 22.332 54.721 51.97 1.575 14.966 13.666 26.28 28.007 26.28s30.651-11.313 32.225-26.28c2.898-29.398 26.457-51.796 54.665-51.97 28.007 0 51.515 22.391 54.608 52.029 1.575 14.908 13.61 26.221 27.951 26.221s30.594-11.313 32.169-26.221c2.925-29.44 26.527-51.858 54.777-52.029 28.162 0.161 51.716 22.456 54.721 51.793 1.576 14.894 13.592 26.163 27.895 26.162 14.285 0 30.651-11.195 32.282-26.103 3.029-29.325 26.569-51.605 54.721-51.793 28.065 0.201 51.562 22.34 54.722 51.558l-1.744 16.499-83.403 159.132c-0.112 0.236-10.629 26.81-26.826 44.369-4.274 4.773-17.828 9.546-38.074 9.546z" />
<glyph unicode="&#xe901;" glyph-name="-tradeManager" d="M931.894 331.768c27.090-16.249 37.926-37.914 27.090-64.995-81.27-194.984-265.481-324.973-476.783-324.973-146.286 0-281.735 59.578-373.841 162.487v-108.324c0-27.081-27.090-54.162-54.18-54.162s-54.18 27.081-54.18 54.162v287.060c0 21.665 10.836 43.33 32.508 48.746 5.418 5.416 16.254 5.416 21.672 5.416 21.672 0 37.926-10.832 48.762-27.081v-5.416c65.016-151.654 211.301-254.562 379.259-254.562s314.243 102.908 379.259 254.562c10.836 27.081 43.344 43.33 70.434 27.081zM368.424 683.822l119.196-119.157 119.196 119.157c21.672 21.665 54.18 21.665 75.852 0s21.672-54.162 0-75.827l-70.434-70.411h86.688c27.090 0 54.18-27.081 54.18-54.162s-27.090-54.162-54.18-54.162h-162.54v-54.162h108.36c27.090 0 54.18-27.081 54.18-54.162s-27.090-54.162-54.18-54.162h-108.36v-54.162c0-27.081-27.090-54.162-54.18-54.162s-54.18 27.081-54.18 54.162v54.162h-108.36c-27.090 0-54.18 27.081-54.18 54.162s27.090 54.162 54.18 54.162h108.36v54.162h-162.54c-27.090 0-54.18 27.081-54.18 54.162s27.090 54.162 54.18 54.162h92.106l-65.016 70.411c-21.672 21.665-21.672 54.162 0 75.827s54.18 21.665 75.852 0zM915.64 916.72c27.090 0 54.18-27.081 54.18-54.162v-287.060c0-21.665-10.836-43.33-32.508-48.746-5.418-5.416-16.254-5.416-21.672-5.416-21.672 0-37.926 10.832-48.762 27.081v5.416c-65.016 157.070-216.719 254.562-379.259 254.562-167.958 0-314.243-102.908-379.259-254.562-10.836-27.081-43.344-43.33-70.434-32.497s-43.344 43.33-27.090 70.411c81.27 194.984 265.481 324.973 476.783 324.973 146.286 0 281.735-59.578 373.841-162.487v108.324c0 27.081 27.090 54.162 54.18 54.162z" />
<glyph unicode="&#xe902;" glyph-name="-securityCertificate" d="M915.371-31.193l-134.542 109.484-136.161-109.495c-1.23-0.879-2.683-1.331-4.145-1.331-1.082 0-2.177 0.249-3.183 0.749-2.353 1.184-3.844 3.568-3.844 6.177v187.621c0 2.225 1.082 4.316 2.909 5.617 1.215 0.867 2.656 1.31 4.117 1.31 0.738 0 1.489-0.119 2.206-0.354 87.574-15.312 133.607-22.968 138.099-22.968s49.959 7.936 136.402 23.808c0.745 0.255 1.524 0.381 2.29 0.381 1.442 0 2.866-0.438 4.074-1.287 1.855-1.302 2.95-3.402 2.95-5.638v-188.489c0-2.611-1.489-5.009-3.856-6.186-0.99-0.5-2.072-0.749-3.153-0.749-1.476 0-2.936 0.451-4.165 1.351zM0.001 106.578v680.114c0 58.966 48.649 106.937 108.446 106.937h601.733c59.818 0 120.342-47.972 120.342-106.937v-212.162c0-3.823-3.142-6.925-7.024-6.925h-84.073c-3.884 0-7.024 3.104-7.024 6.925v175.701c0 27.026-22.305 49.018-49.709 49.018h-536.365c-27.411 0-49.717-21.991-49.717-49.018v-625.836c0-27.020 22.305-49.010 49.717-49.010h429.395c3.884 0 7.024-3.098 7.024-6.926v-80.968c0-3.83-3.142-6.93-7.024-6.93h-467.271c-59.8 0-108.449 67.050-108.449 126.017zM571.026 346.456c0 109.867 90.661 199.251 202.099 199.251 111.441 0 202.114-89.386 202.114-199.251-0.005-109.865-90.674-199.244-202.114-199.244-111.432 0-202.099 89.377-202.099 199.244zM773.124 449.353c-57.549 0-104.37-46.162-104.37-102.898 0-56.74 46.82-102.903 104.37-102.903s104.37 46.162 104.37 102.903c0 56.736-46.82 102.898-104.37 102.898zM200.57 176.087c-3.877 0-7.024 3.098-7.024 6.925v77.321c0 3.83 3.148 6.925 7.024 6.925h279.147c3.884 0 7.024-3.098 7.024-6.925v-77.321c0-3.83-3.142-6.925-7.024-6.925h-279.147zM200.57 317.373c-3.877 0-7.024 3.098-7.024 6.926v77.317c0 3.83 3.148 6.925 7.024 6.925h279.147c3.884 0 7.024-3.098 7.024-6.925v-77.317c0-3.83-3.142-6.926-7.024-6.926h-279.147zM200.57 462.209c-3.877 0-7.024 3.104-7.024 6.926v77.659c0 3.823 3.148 6.926 7.024 6.926h279.147c3.884 0 7.024-3.104 7.024-6.926v-77.659c0-3.823-3.142-6.926-7.024-6.926h-279.147zM200.57 606.038c-3.877 0-7.024 3.104-7.024 6.925v87.166c0 3.823 3.148 6.926 7.024 6.926h425.904c3.884 0 7.024-3.104 7.024-6.926v-87.166c0-3.823-3.142-6.925-7.024-6.925h-425.904z" />
<glyph unicode="&#xe903;" glyph-name="-todoList" d="M155.576 932.113c-81.472 0-155.575-79.166-155.575-163.361v-679.25c0-62.117 84.644-132.309 167.985-132.309h631.715c81.482 0 175.537 62.206 175.537 146.401v654.491c0 84.193-69.118 174.028-155.395 174.028h-664.267zM876.389 150.279c0-44.566-33.543-97.187-76.686-97.187h-631.715c-43.135 0-76.686 33.122-76.686 77.689v627.306c0 44.566 33.551 79.235 76.686 79.235h631.715c43.143 0 76.686-34.668 76.686-79.235v-607.808zM224.551 608.773l-47.931 49.516c-14.388 14.859-38.347 14.859-47.931 0-14.388-14.849-14.388-39.617 0-49.516l76.686-79.245c4.796-4.95 14.379-9.899 28.755-9.899 14.388 0 14.388 4.95 28.755 9.899l129.412 133.72c14.388 14.859 14.388 39.617 0 49.527-28.755 14.849-47.931 14.849-62.308 4.95l-105.439-108.952zM782.929 639.704h-279.198c-34.394 0-48.164-21.316-48.164-49.766 0-35.541 20.654-49.766 48.164-49.766h279.21c34.394 0 48.151 21.33 48.151 49.766 0 28.45-20.654 49.766-48.164 49.766zM782.929 347.011h-279.198c-34.394 0-48.164-21.316-48.164-49.766 0-35.541 20.654-49.766 48.164-49.766h279.21c34.394 0 48.151 21.33 48.151 49.766 0 28.45-20.654 49.766-48.164 49.766zM243.715 386.654c57.523 0 110.238-44.576 110.238-113.911 0-64.375-47.92-113.902-110.238-113.902-62.308 0-110.238 49.526-110.238 113.902 0 64.385 47.931 113.911 110.238 113.911zM243.715 317.32c-23.959 0-38.339-14.86-38.339-39.627 0-24.758 14.379-39.617 38.339-39.617 19.172 0 38.347 14.859 38.347 39.617 0 24.768-14.376 39.627-38.347 39.627z" />
<glyph unicode="&#xe904;" glyph-name="-orderManager" horiz-adv-x="819" d="M613.81 958.996c0.064-15.003 0.064-31.475 0-49.417v0l101.081-0.609c47.851 1.023 93.228-54.42 94.556-102.305v0-737.862c-1.328-47.885-46.705-85.716-94.556-84.693v0h-585.632c-69.015-1.456-99.421 43.683-100.002 85.911v0 736.643c0.969 46.703 49.687 101.944 96.349 102.914v0l97.402-0.609v50.026zM223.010 812.546h-69.422c-22.953-1.721-25.858 0.424-28.003-31.471v0-675.053c1.29-14.243 13.753-24.819 28.003-23.763v0h529.78c14.25-1.056 26.713 9.52 28.003 23.763v0l-0.609 656.561c0.609 31.623-7.889 47.311-28.003 49.963v0h-68.948c-0.125-16.53-0.203-31.508-0.234-44.935v-24.783c0.031-11.357 0.109-21.162 0.234-29.415v0h-390.801c0.094 35.452 0.094 68.496 0 99.133v0zM273.067 471.545v-97.49h-97.524v97.49h97.524zM468.115 471.545v-97.49h-97.524v97.49h97.524zM663.162 471.545v-97.49h-97.524v97.49h97.524zM516.303 863.363h-194.055v-50.818h194.055v50.818z" />
<glyph unicode="&#xe905;" glyph-name="-orderConfirm" horiz-adv-x="819" d="M613.81 938.806c0.064-15.003 0.064-31.475 0-49.416v0l101.081-0.609c47.851 1.023 93.228-54.42 94.556-102.305v0-737.862c-1.328-47.885-46.705-85.716-94.556-84.693v0h-585.632c-69.015-1.456-99.421 43.683-100.002 85.911v0 736.643c0.969 46.703 49.687 101.944 96.349 102.914v0l97.402-0.609v50.026zM223.010 792.355h-69.422c-22.953-1.721-25.858 0.424-28.003-31.471v0-675.053c1.29-14.243 13.753-24.819 28.003-23.763v0h529.78c14.25-1.056 26.713 9.52 28.003 23.763v0l-0.609 656.561c0.609 31.623-7.889 47.311-28.003 49.963v0h-68.948c-0.125-16.53-0.203-31.508-0.234-44.935v-24.783c0.031-11.357 0.109-21.162 0.234-29.415v0h-390.801c0.094 35.452 0.094 68.496 0 99.133v0zM566.006 556.854c18.98 20.891 51.54 41.783 80.095 20.891s11.752-61.434 0-72.732v0l-255.808-288.995c-5.504-5.009-12.651-7.826-20.089-7.921-8.398 0.739-16.113 4.931-21.307 11.577v0l-145.926 148.258c-7.889 8.365-36.063 46.906 0 83.415 34.404 31.269 77.285-9.761 83.647-19.341v0l83.586-97.593zM516.303 843.173h-194.055v-50.818h194.055v50.818z" />
<glyph unicode="&#xe906;" glyph-name="-infoConfirm" horiz-adv-x="956" d="M146.286 146.409v584.888c0 53.861 43.663 97.524 97.524 97.524h292.571v-146.19c0-80.791 65.494-146.286 146.286-146.286h146.286v-97.492h97.524v194.984l-292.571 292.476h-438.857c-80.791 0-146.286-65.494-146.286-146.286v-682.348c0-80.791 65.494-146.286 146.286-146.286h195.048v97.492h-146.286c-53.861 0-97.524 43.663-97.524 97.524zM857.517 361.552l68.96-68.937-258.125-258.002 7.683-7.652-68.96-68.937-168.216 168.161 68.96 68.937 91.584-91.56 258.115 257.989zM633.905 780.075l146.286-146.238h-48.762c-53.861 0-97.524 43.663-97.524 97.524v48.714z" />
<glyph unicode="&#xe907;" glyph-name="-invoiceManager" horiz-adv-x="1097" d="M993.516 891.996c26.785 0 51.382-23.756 51.382-50.627v-840.122c0-17.913-8.928-22.861-22.321-31.818s-31.249-8.957-44.642 0l-121.202 76.512c-31.249-17.913-89.284-53.74-142.854-85.089-13.393-8.957-31.249-8.957-49.106 0-53.57 31.349-116.069 71.654-142.854 85.089-31.249-17.913-93.748-53.74-151.782-89.568-8.928-4.478-17.857-4.478-26.785-4.478s-17.857 4.478-22.321 8.957c-53.57 35.827-84.194 76.132-110.98 94.046-12.019-7.234-39.638-22.369-69.542-38.994l-25.881-14.465c-17.213-9.687-33.93-19.263-47.666-27.531-13.393-8.957-31.249-8.957-44.642 0s-22.321 9.426-22.321 27.339v840.122c0 26.87 26.573 50.627 53.359 50.627h940.157zM941.285 789.568l-835.695-2.366v-681.161c71.427 40.305 95.534 52.397 104.462 52.397 13.393 0 28.839 4.478 133.3-103.54 146.548 90.803 165.502 102.785 178.689 103.503l1.396 0.037c13.393 0 20.803-13.973 163.657-103.54 137.158 83.39 154.357 89.142 166.885 89.538l2.754 0.029c8.928 0 17.857 0 22.321-4.478l62.231-33.946v683.527zM784.592 367.041c26.785 0 52.231-25.034 52.231-51.904s-25.446-51.904-52.231-51.904h-522.309c-26.785 0-52.231 25.034-52.231 51.904s25.446 51.904 52.231 51.904h522.309zM735.68 525.217c24.505 0 47.784-25.527 47.784-52.397s-23.28-52.397-47.784-52.397h-477.844c-24.505 0-47.784 25.527-47.784 52.397s23.28 52.397 47.784 52.397h477.844zM627.9 682.408c26.785 0 52.231-25.527 52.231-52.397s-25.446-52.397-52.231-52.397h-365.617c-26.785 0-52.231 25.527-52.231 52.397s25.446 52.397 52.231 52.397h365.617z" />
<glyph unicode="&#xe908;" glyph-name="-gys" horiz-adv-x="956" d="M487.622 936.91c242.376 0 438.854-193.431 438.854-432.036 0-124.78-53.73-237.199-139.66-316.067v0l67.128-114.323-133.050 0.251-65.118-112.745-71.291 121.412c-31.163-6.911-63.58-10.564-96.862-10.564-33.108 0-65.359 3.615-96.372 10.457v0l-71.229-121.305-65.118 112.746-133.050-0.251 66.934 113.988c-86.137 78.885-140.024 191.449-140.024 316.401 0 238.604 196.484 432.036 438.859 432.036zM487.622 845.802c-190.934 0-346.272-152.937-346.272-340.927 0-187.986 155.338-340.927 346.272-340.927s346.267 152.939 346.267 340.927c0 187.99-155.334 340.927-346.267 340.927zM295.447 742.041l95.804-0.043c-3.175-50.105-39.338-119.938-54.038-146.648l6.996-311.558-101.561 69.928v112.96c-16.818-27.348-26.347-44.025-46.036-65.311v146.005c30.257 42.522 83.127 133.294 98.835 194.668zM440.012 248.802c-2.834 1.373-63.674 86.681-66.461 88.016 49.037 36.875 40.12 19.824 66.461 64.551h115.725c-13.658-53.875-63.897-108.83-115.725-152.567zM729.179 401.369c22.026-30.947 15.702-21.141 48.762-51.457l-90.169-51.457c-33.637 34.145-31.997 39.955-77.070 102.914h118.477zM437.189 691.893v50.107h99.178v-50.106h97.566v50.106h96.705v-50.107h47.303v-96.543h-47.303v-47.977h50.621v-97.2h-393.183v97.2h49.114v47.977h-47.312v96.543l47.312-0.001zM535.738 545.533h96.966v50.207h-96.966v-50.207z" />
<glyph unicode="&#xe909;" glyph-name="-query" horiz-adv-x="956" d="M146.286 166.599v584.888c0 53.861 43.663 97.524 97.524 97.524h292.571v-146.19c0-80.791 65.494-146.286 146.286-146.286h146.286v-243.73h97.524v341.222l-292.571 292.476h-438.857c-80.791 0-146.286-65.494-146.286-146.286v-682.348c0-80.791 65.494-146.286 146.286-146.286h390.095v97.492h-341.333c-53.861 0-97.524 43.663-97.524 97.524zM585.143 507.789c107.722 0 195.047-87.297 195.047-194.984 0-36.152-9.842-70.006-26.994-99.030l136.349-136.336-68.96-68.937-136.38 136.304c-29.034-17.146-62.899-26.985-99.063-26.985-107.722 0-195.047 87.297-195.047 194.984s87.326 194.984 195.047 194.984zM585.143 410.297c-53.861 0-97.524-43.649-97.524-97.492s43.663-97.492 97.524-97.492c53.861 0 97.524 43.649 97.524 97.492s-43.663 97.492-97.524 97.492zM633.905 800.265l146.286-146.238h-48.762c-53.861 0-97.524 43.663-97.524 97.524v48.714z" />
<glyph unicode="&#xe90a;" glyph-name="-import" d="M781.461 56.582h-586.254c-53.861 0-97.524 43.663-97.524 97.524v584.888c0 53.861 43.663 97.524 97.524 97.524h293.206v-146.19c0-80.791 65.494-146.286 146.286-146.286h146.762v-146.238h97.682v243.73l-293.047 292.476h-439.809c-80.791 0-146.286-65.494-146.286-146.286v-682.348c0-80.791 65.494-146.286 146.286-146.286h732.857v243.73h-97.682v-146.238zM586.096 787.772l146.524-146.238h-49c-53.861 0-97.524 43.663-97.524 97.524v48.714zM975.238 349.058v-97.492h-389.143l96.889-97.492h-145.73l-146.524 146.238 146.524 146.238h146.524l-97.682-97.492h389.143z" />
<glyph unicode="&#xe90b;" glyph-name="-voucherManager" horiz-adv-x="956" d="M682.667 924.417l243.809-311.433v-576.827c-8.127-46.038-48.762-86.66-97.524-86.66h-682.666c-24.381 2.708-92.106 48.746-97.524 97.492v796.184c5.418 46.038 37.926 75.827 83.979 81.243h549.926zM146.286 793.116v-697.381c5.418-21.665 27.090-46.038 48.762-48.746h585.142c24.381 2.708 48.762 27.081 48.762 48.746v536.206h-97.524c-24.381 2.708-48.762 27.081-48.762 48.746v146.238h-506.582c-24.381 2.708-29.799-9.436-29.799-33.809zM438.858 778.179c73.143 0 146.286-73.119 146.286-146.238v0-292.476c0-46.918-48.762-97.492-97.524-97.492s-97.524 50.574-97.524 97.492v0 243.73h48.762v-243.73c0-24.373 24.381-48.746 48.762-48.746s48.762 25.287 48.762 48.746v0 292.476c0 46.918-48.762 97.492-97.524 97.492s-97.524-50.574-97.524-97.492v0-389.968c0-73.119 73.143-97.492 146.286-97.492s146.286 27.42 146.286 100.539v0 240.683h48.762v-240.683c0-76.166-73.143-149.285-195.047-149.285s-195.047 73.119-195.047 149.285v0 386.921c0 73.119 73.143 146.238 146.286 146.238z" />
<glyph unicode="&#xe90c;" glyph-name="-entInvocieManager" horiz-adv-x="1097" d="M993.516 904.665c26.785 0 51.382-23.603 51.382-50.299v-834.095c0-17.798-8.928-22.713-22.321-31.612s-31.249-8.899-44.642 0l-121.202 76.017c-31.249-17.798-98.025-62.292-151.595-93.438-13.393-8.899-31.249-8.899-49.106 0-53.57 31.146-107.327 80.089-134.112 93.438-25.568-14.562-72.054-41.037-119.899-69.679l-31.883-19.309c-8.928-4.449-17.857-4.449-26.785-4.449s-17.857 4.449-22.321 8.899c-53.57 35.595-84.194 75.64-110.98 93.437-12.019-7.187-39.638-22.225-69.542-38.742l-25.881-14.372c-17.213-9.625-33.93-19.138-47.666-27.353-13.393-8.899-27.454-21.87-40.847-12.971s-26.116 22.336-26.116 40.134v834.095c0 26.696 26.573 50.299 53.359 50.299h940.157zM941.285 802.9l-835.695-2.351v-676.162c71.427 40.045 95.534 52.058 104.462 52.058 13.393 0 28.839 4.449 133.3-102.87l29.495 18.158c119.732 73.701 136.949 84.013 149.194 84.676l1.396 0.037c8.609 0 14.747-5.737 55.985-33.476l15.097-10.084c22.001-14.591 51.76-33.885 92.575-59.31 132.078 79.782 152.918 88.036 165.468 88.89l2.796 0.095c0.457 0.004 0.914 0.004 1.375 0.004 8.928 0 17.857 0 22.321-4.449l62.231-33.726v678.513zM578.572 594.866v-105.577h152.857v-106.903h-152.857v-52.228h205.102v-52.228c0-29.582-47.415-52.228-78.367-52.228h-444.081v104.455h52.245v156.683h104.49v-156.683h52.245v264.708h108.367zM626.939 747.979c43.197 0.34 95.306-34.274 104.49-61.816l52.245-147.094h-104.49l-26.122 78.341c-7.483 16.321-20.918 24.482-40.306 24.482h-142.551v106.087h156.735zM417.96 747.979c-34.83-69.636-69.66-139.273-104.49-208.91h-104.49l104.49 208.91h104.49z" />
<glyph unicode="&#xe90d;" glyph-name="-entAuth" horiz-adv-x="896" d="M765.804 904.993c47.898 0 101.877-35.48 101.877-81.721v0l0.891-458.879c0-43.109-35.176-86.778-72.504-117.028v0l-289.673-233.381c-13.795-14.090-35.269-22.979-58.134-22.979-22.808 0-44.282 8.833-60.415 24.992v0l-287.335 231.367c-44.116 40.93-54.796 86.722-54.796 117.028v0 461.617c0 48.141 47.062 78.982 93.459 78.982v0zM749.39 814.2h-589.193c-13.264 0-23.225-11.067-23.225-25.758v0-415.332c0-28.575 12.245-47.339 32.667-66.304v0l259.176-208.824c13.814-13.281 28.83-11.522 38.441-1.862v0l262.68 211.843c26.028 21.128 49.887 49.148 49.887 66.756v0l-0.801 412.868c0 13.231-14.965 26.613-29.631 26.613v0zM615.292 672.272c6.788 13.195 53.777 6.71 66.684 0 13.074-6.821 6.787-52.157 0-65.298v0l-178.195-236.907c-11.015-21.248-28.149-33.323-47.398-33.323-19.081 0.112-36.104 12.413-46.785 33.715v0l-179.219 230.487c-6.676 13.195-6.893 64.672 6.292 71.326 13.074 6.543 59.681 13.195 66.301 0v0l153.802-225.636z" />
<glyph unicode="&#xe90e;" glyph-name="-entInfo" d="M879.592 121.773h-650.855c-35.942 0-83.35 18.194-83.35 54.105v706.424c0 35.91 47.407 67.102 83.349 67.102h650.855c35.938 0 95.647-13.96 95.647-49.871v-706.425c0-35.91-59.707-71.335-95.646-71.335zM847.047 853.545h-571.875c-17.977 0-32.543-14.545-32.543-32.494v-570.623c0-17.928 14.566-32.494 32.543-32.494h571.876c17.977 0 32.543 14.566 32.543 32.494v570.623c0 17.949-14.567 32.494-32.544 32.494zM778.789 316.304h-437.063c1.257 35.207-0.619 64.069 0 96.187h437.063c-0.306-43.538 0.522-60.083 0-96.187zM681.562 512.028h-339.836c0.142 29.381-0.371 63.298 0 96.572h339.836c1.189-33.037 0.887-56.879 0-96.572zM583.864 705.88h-242.137c-0.71 29.719 0.38 73.704-0.001 97.573h242.139c0.183-32.237 0.255-60.956 0-97.573zM814.495-25.516h-715.941c-35.942 0-98.554 37.643-98.554 73.564v714.849c0 35.9 62.622 64.955 98.565 64.955l-0.001-752.849h781.027c0-35.922-29.151-100.518-65.096-100.518z" />
<glyph unicode="&#xe90f;" glyph-name="-enterpirse" d="M487.619 913.82c-268.215 0-487.619-219.332-487.619-487.46s219.404-487.46 487.619-487.46c268.154 0 487.619 219.393 487.619 487.46 0 268.127-219.465 487.46-487.619 487.46zM487.619 801.095c208.897 0 374.857-165.959 374.857-374.735s-165.96-374.735-374.857-374.735c-208.843 0-374.857 165.959-374.857 374.735s166.013 374.735 374.857 374.735zM533.407 520.811h-65.678v-255.79h-71.779v139.025c0 19.14 1.857 33.391 5.57 42.545 1.91 4.421 2.812 8.218 2.812 11.39 0 3.121-4.828 4.681-14.589 4.681h-64.511v-197.641h-83.026v-60.957h486.38v60.957h-187.326v95.856h144.142v59.136h-144.142v42.077c0 19.556 1.857 33.963 5.57 43.221 1.432 3.693 2.175 7.23 2.175 10.558s-5.146 4.941-15.597 4.941zM458.763 715.748c-39.258-100.433-120.799-171.844-244.569-214.337 14.589-11.806 32.096-30.426 52.681-55.912 102.496 49.878 177.087 107.611 223.879 173.352 48.649-70.891 121.171-128.311 217.725-172.26 19.364 29.906 36.871 53.519 52.627 70.891-50.877 12.171-96.342 31.831-136.768 58.928-40.532 27.202-72.098 59.032-94.857 95.544 2.175 2.236 5.411 4.629 9.549 7.23 4.191 2.549 6.154 5.513 6.154 8.842 0 2.601-1.432 4.629-4.456 6.085-0.504 0.251-1.683 0.66-3.537 1.227l-7.586 2.175c-12.815 3.533-36.429 9.601-70.842 18.235z" />
<glyph unicode="&#xe910;" glyph-name="-dataManager" horiz-adv-x="1097" d="M940.408 90.652h-731.428c-28.854 0-52.245 23.391-52.245 52.245v156.666h835.918v-156.666c0-28.854-23.391-52.245-52.245-52.245zM1097.143 404.019h-1044.897v-313.333c0-57.708 46.782-104.49 104.49-104.49h835.918c57.708 0 104.49 46.782 104.49 104.49v313.333zM261.225 247.335h156.735v-104.456h-156.735v104.456zM470.205 247.335h208.979v-104.456h-208.979v104.456zM731.429 247.335h156.735v-104.456h-156.735v104.456zM992.653 612.93h-835.918v156.666c0 28.854 23.391 52.245 52.245 52.245h731.428c28.854 0 52.245-23.391 52.245-52.245v-156.666zM992.653 926.297h-835.918c-57.708 0-104.49-46.782-104.49-104.49v-313.333h1044.897v313.333c0 57.708-46.782 104.49-104.49 104.49zM261.225 769.613h156.735v-104.456h-156.735v104.456zM992.653 612.93h-835.918v156.666c0 28.854 23.391 52.245 52.245 52.245h731.428c28.854 0 52.245-23.391 52.245-52.245v-156.666zM992.653 926.297h-835.918c-57.708 0-104.49-46.782-104.49-104.49v-313.333h1044.897v313.333c0 57.708-46.782 104.49-104.49 104.49zM261.225 769.613h156.735v-104.456h-156.735v104.456zM470.205 769.613h208.979v-104.456h-208.979v104.456zM731.429 769.613h156.735v-104.456h-156.735v104.456z" />
<glyph unicode="&#xe911;" glyph-name="-myCredit" d="M487.619 910.919c268.871 0 487.619-218.677 487.619-487.46s-218.748-487.46-487.619-487.46c-268.871 0-487.619 218.677-487.619 487.46s218.748 487.46 487.619 487.46zM487.619 794.070c-204.423 0-370.732-166.254-370.732-370.611s166.308-370.611 370.732-370.611c204.423 0 370.732 166.254 370.732 370.611s-166.309 370.611-370.732 370.611zM487.619 685.806c24.157 0 43.743-19.579 43.743-43.729v0-26.101l131.602-0.006c24.157 0 43.743-19.58 43.743-43.729s-19.585-43.729-43.743-43.729v0l-131.602 0.007v-58.306l131.602-0.006 2.115-0.161 2.083-0.262c1.544-0.149 3.127-0.16 4.619-0.466 2.387-0.488 4.655-1.277 6.882-2.136 0.43-0.166 0.904-0.234 1.327-0.412 2.589-1.094 5.046-2.438 7.353-3.989 0.023-0.017 0.052-0.027 0.077-0.042 11.014-7.436 18.283-19.804 19.048-33.897 0.043-0.799 0.24-1.553 0.24-2.364v0l-0.037-150.968 0.007-0.547c0.030-24.449-19.557-44.029-43.715-44.029v0h-131.602v-26.078c0-24.149-19.587-43.729-43.743-43.729s-43.743 19.579-43.743 43.729v0 26.078h-131.602c-24.157 0-43.743 19.579-43.743 43.729 0 24.149 19.585 43.729 43.743 43.729v0h131.602v64.364l-131.602 0.006c-24.157 0-43.743 19.579-43.743 43.729 0 1.604 0.304 3.121 0.473 4.68-0.169 1.562-0.473 3.086-0.473 4.694v0l0.029 129.181c0 1.186 0.257 2.298 0.35 3.46-0.108 1.256-0.379 2.465-0.379 3.75 0 24.149 19.587 43.729 43.744 43.729v0l131.602-0.006v26.098c0 24.149 19.587 43.729 43.743 43.729zM619.211 382.748l-87.848 0.003v-64.361h87.832l0.016 64.358zM443.875 528.521l-87.838 0.003-0.012-58.306 87.85-0.003v58.306z" />
<glyph unicode="&#xe912;" glyph-name="-myBill" d="M910.222 721.202h-180.253v31.976c0 17.66 3.073 63.111-46.767 63.111s-48.899-45.451-48.899-63.111v-31.976h-49.69v158.947c0 17.66-31.032 31.775-48.986 31.775s-48.008-14.115-48.008-31.775v-158.947h-48.762v79.931c0 17.66-4.767 63.111-48.894 63.111-42.927 0-48.154-45.451-48.154-63.111v-79.931h-49.772v27.86c0 17.66-0.967 67.227-48.083 67.227-49.204 0-49.149-49.568-49.149-67.227v-27.86h-129.79c-35.907 0-65.016-60.609-65.016-95.928v-447.666c0-35.32 28.102-80.726 64.009-80.726h104.090c30.102-73.034 162.246-111.131 319.519-111.131s287.403 38.097 317.506 111.131h104.090c35.907 0 66.023 45.407 66.023 80.726v447.666c0 35.32-29.109 95.928-65.016 95.928zM487.619 49.702c-113.063 0-209.317 10.022-245.141 47.178h488.269c-35.824-37.156-130.065-47.178-243.128-47.178zM878.086 625.273v-432.752h-50.449v144.967c0 17.66-29.114 48.717-47.067 48.717s-48.951-31.057-48.951-48.717v-144.967h-634.97v432.752h781.438zM559.137 584.088l-71.517-56.485-71.517 56.485c-13.415 12.145-34.18 11.723-47.072-0.959s-13.322-33.107-0.974-46.302l71.517-53.437-1.105-1.087h-80.88c-17.954 0-32.508-14.316-32.508-31.976 0-15.698 11.5-15.646 26.665-15.441l86.723 0.054v-49.43h-80.88c-17.954 0-32.508-14.316-32.508-31.976s14.554-16.046 32.508-16.046h80.88v-95.928c0-17.66 31.198-31.976 49.152-31.976s49.152 14.316 49.152 31.976v95.928h80.88c17.954 0 32.508-1.614 32.508 16.046s-14.554 31.976-32.508 31.976h-80.88v49.43h80.88c17.954 0 32.508 8.99 32.508 26.65s-14.554 20.713-32.508 20.713h-80.88l-1.105 1.087 71.517 53.437c12.347 13.195 11.918 33.621-0.974 46.302s-33.658 13.104-47.072 0.959z" />
<glyph unicode="&#xe913;" glyph-name="-managerTool" d="M929.414 237.151l-219.196 219.094c14.115 39.393 21.26 80.569 21.26 122.767 0 201.583-164.057 365.594-365.737 365.594-50.207 0-115.011-10.678-152.142-29.301-20.874-25.987-25.81-48.464-14.808-67.431 0.068-0.069 61.839-59.933 185.312-179.594 8.29-38.992 2.169-68.748-18.362-89.267s-50.862-31.242-90.994-32.166c-100.506 111.678-161.556 179.046-183.153 202.104-26.594 28.394-59.205 25.653-73.744 0-12.711-47.562-17.849-131.99-17.849-169.94 0-201.566 164.058-365.593 365.737-365.593 42.179 0 83.372 7.14 122.829 21.251l219.197-219.080c29.596-29.581 68.952-45.902 110.825-45.902s81.266 16.321 110.86 45.902c61.058 61.070 61.058 160.458-0.035 221.563zM828.663 116.329c-14.424-14.42-33.589-22.343-53.945-22.343-20.417 0-39.581 56.736-53.976 71.155l-220.875 220.76c-26.303-34.973-87.458-53-183.466-54.082-50.064 2.91-188.318 74.42-208.286 215.029-2.787 19.628 86.234-85.605 90.675-66.537 50.144-30.233 116.52-37.954 199.128-23.163 43.488 8.48 77.471 38.38 101.948 89.7 21.963 60.089 18.196 113.858-11.301 161.309 19.105 4.423-123.656 144.813-104.464 139.719 136.161-31.412 240.891-138.083 244.823-239.886 7.326-50.791-12.575-105.742-59.705-164.853l210.58-218.957c29.745-29.735 78.576-78.116 48.861-107.85z" />
<glyph unicode="&#xe914;" glyph-name="-ybgl" horiz-adv-x="1396" d="M1255.526-59.893h-886.253c0 40.755-33.087 73.832-73.854 73.832-40.805 0-73.854-33.077-73.854-73.832h-147.709c-40.805 0-73.854 33.040-73.854 73.832l0.49 849.412c0 40.792 33.050 73.832 73.854 73.832h147.709c0-40.756 33.050-73.796 73.854-73.796 40.768 0 73.854 33.040 73.854 73.796h886.253c40.768 0 73.854-33.040 73.854-73.832l-0.49-849.412c0-40.792-33.087-73.832-73.854-73.832zM1198.065 804.637h-774.942c-25.591-43.967-72.673-73.833-127.214-73.833s-101.624 29.865-127.214 73.833h-33.49l-0.49-732.572h33.49c25.591 43.93 72.673 73.833 127.214 73.833s101.624-29.902 127.214-73.833h774.942l0.49 732.572zM483.747 604.937h560.556c10.192 0 18.464-8.269 18.464-18.458v-95.321c0-10.189-8.272-18.458-18.464-18.458h-560.556c-10.192 0-18.464 8.269-18.464 18.458v95.321c0 10.189 8.272 18.458 18.464 18.458zM483.747 405.59h560.556c10.192 0 18.464-8.269 18.464-18.458v-95.321c0-10.189-8.272-18.458-18.464-18.458h-560.556c-10.192 0-18.464 8.269-18.464 18.458v95.321c0 10.189 8.272 18.458 18.464 18.458zM379.019 272.018h-93.189c-10.192 0-18.464 8.269-18.464 18.458v97.556c0 10.189 8.272 18.458 18.464 18.458h93.189c10.192 0 18.464-8.269 18.464-18.458v-97.556c0-10.189-8.272-18.458-18.464-18.458zM379.334 473.338h-93.504c-10.192 0-18.464 8.269-18.464 18.458v95.046c0 10.189 8.272 18.458 18.464 18.458h93.504c10.192 0 18.464-8.269 18.464-18.458v-95.046c0-10.189-8.272-18.458-18.464-18.458z" />
<glyph unicode="&#xe915;" glyph-name="-bankManager" horiz-adv-x="1280" d="M141.434 900.601c-62.847 0-141.433-78.858-141.433-138.237v-647.383c0-59.359 78.586-128.367 141.433-128.367h990.477c62.847 0 148.090 69.008 148.090 128.367v647.383c0 59.381-85.243 138.237-148.090 138.237h-990.477zM1131.91 778.393c20.634 0 25.677-16.461 25.677-35.975v-87.932h-1036.352v87.932c0 19.512 17.411 35.975 38.095 35.975h972.58zM141.434 108.114c-20.684 0-19.528 16.461-19.528 35.951v330.008h1036.19v-330.010c0-19.489-5.551-35.95-26.185-35.95h-990.477zM487.62 352.209h60.952v-121.865h-60.952v121.865zM365.715 352.209h60.952v-121.865h-60.952v121.865zM243.81 352.209h60.952v-121.865h-60.952v121.865z" />
<glyph unicode="&#xe916;" glyph-name="-detailManager" d="M97.524 174.296v584.888c0 53.861 43.663 97.524 97.524 97.524h292.571v-146.19c0-80.791 65.494-146.286 146.286-146.286h146.286v-146.238h97.524v243.73l-292.571 292.476h-438.857c-80.791 0-146.286-65.494-146.286-146.286v-682.348c0-80.791 65.494-146.286 146.286-146.286h292.571v97.492h-243.809c-53.861 0-97.524 43.663-97.524 97.524zM975.238 76.772v-97.492h-487.619v97.492h487.619zM975.238 223.010v-97.492h-487.619v97.492h487.619zM975.238 369.248v-97.492h-487.619v97.492h487.619zM585.143 807.962l146.286-146.238h-48.762c-53.861 0-97.524 43.663-97.524 97.524v48.714z" />
<glyph unicode="&#xe917;" glyph-name="-financingManager" d="M878.534 960h-489.404c-53.319 0-96.937-46.017-96.937-97.376v-121.71l-268.708-243.73c-11.426-4.395-23.485-30.649-23.485-43.593v-433.198c0-16.802 32.014-23.099 48.856-23.099 16.84 0 47.913 6.296 47.913 23.099v404.401l195.425 190.037-0.001-143.073-96.11-96.44c-11.664-12.11-50.458-48.746-50.458-97.492s82.711-31.335 94.434-19.28l149.070 154.136 24.816 22.087c0.387 0.356 76.021 86.788 146.958 62.415 21.015-7.221 49.436-43.593 24.428-97.492 0.655-3.325-60.077-75.359-95.365-105.107l-120.416-105.093-173.468-155.394c-12.794-10.927-11.638-36.251-0.658-49.016 48.856 0 89.143 0 97.712 0 48.856 48.746 79.251 65.804 120.808 97.762h464.523c53.32 0 96.769 62.296 96.769 113.654v666.127c0 51.36-43.383 97.376-96.704 97.376zM541.951 229.081c70.371 59.257 141.718 142.275 141.094 195.714-0.567 49.161 0 103.93-72.704 161.062-92.412 48.864-147.119 0-147.149 0-5.951-2.376-66.475-59.314-74.061-64.3v292.476c0 14.608 33.209 48.591 49.633 48.591h293.137v-682.289h-244.281l54.331 48.746zM878.535 204.708c0-14.606-13.865-26.895-30.289-26.895l-18.633 2.522-0.066 687.49 18.633-2.522c16.424 0 30.289-12.289 30.289-26.897l0.066-633.698z" />
<glyph unicode="&#xe918;" glyph-name="-financingManager2" d="M500.83 952.303c-143.239 0-259.355-116.084-259.355-259.28 0-143.202 116.121-259.28 259.355-259.28 143.248 0 259.369 116.083 259.369 259.28s-116.122 259.28-259.369 259.28zM500.832 889.874c-108.75 0-196.907-88.133-196.907-196.85 0-108.721 88.161-196.85 196.907-196.85 108.757 0 196.918 88.132 196.918 196.85s-88.162 196.85-196.918 196.85zM581.565 630.076h-56.251v-53.497c0-11.367-9.218-20.575-20.578-20.575-11.367 0-20.589 9.211-20.589 20.575v53.497h-59.004c-11.364 0-20.581 9.211-20.581 20.575s9.214 20.575 20.581 20.575h59.004v41.611h-64.035c-11.368 0-20.582 9.211-20.582 20.575s9.214 20.578 20.582 20.578h35.063l-27.539 45.034c-5.767 9.79-2.5 22.404 7.293 28.169 9.797 5.766 22.411 2.5 28.183-7.291l39.204-65.912h1.448l38.613 65.444c5.772 9.79 18.382 13.052 28.183 7.287 9.79-5.766 13.053-18.38 7.289-28.169l-27.303-44.561h26.003c11.356 0 20.581-9.211 20.581-20.578s-9.225-20.575-20.581-20.575h-51.227v-41.611h56.251c11.367 0 20.585-9.211 20.585-20.575-0.007-11.367-9.225-20.575-20.592-20.575zM975.238-22.616l-301.68 366.196c-8.714 14.736-24.757 24.63-43.12 24.63l-289.426-0.913c-27.652 0-53.364-19.516-53.364-47.166s22.416-50.047 50.068-50.047h199.847c34.972 0 52.458-16.145 52.458-48.434s-17.486-48.574-52.458-48.853h-238.392l-201.431 293.611c-16.705 22.030-55.881 16.701-77.915 0-22.036-16.696-26.356-48.093-9.65-70.12l205.302-317.025c2.84-3.739 6.193-7.062 9.957-9.871 13.581-19.099 41.521-44.242 66.75-44.242 4.311 0 8.529 0.381 12.639 1.087h477.086l48.869-48.853h144.46z" />
<glyph unicode="&#xe919;" glyph-name="-userManager" horiz-adv-x="956" d="M489.657 434.696c32.051 9.065 3.748-0.095 5.44-0.114 46.115 16.62 28.124 4.686 59.564 33.047l15.387 12.12c60.107 47.436 94.584 118.303 94.584 194.419 0 136.393-110.547 247.349-246.44 247.349s-246.439-110.956-246.439-247.348c0-76.116 34.478-146.984 94.585-194.419l15.382-12.12-18.125-7.273c-160.125-64.249-263.595-204.311-263.595-376.784l6.751-104.685c0-17.548 14.237-31.826 31.754-31.826h464.022c-15.106 19.552-51.328 72.402-61.736 95.164h-336c0 288.374 209.45 371.589 384.866 392.471zM926.476 44.154v-97.557h-386.132v97.557h386.132zM926.476 190.488v-97.557h-386.132v97.557h386.132zM926.476 336.823v-97.557h-386.132v97.557h386.132zM418.192 822.637c81.514 0 147.837-66.6 147.837-148.468s-66.323-148.466-147.837-148.466c-81.515 0-147.827 66.597-147.827 148.466s66.312 148.468 147.827 148.468z" />
<glyph unicode="&#xe91a;" glyph-name="-ybl" horiz-adv-x="1097" d="M522.122 947.929c77.133 0 149.677-30.035 204.194-84.534 47.744-47.728 76.696-109.217 83.251-175.513 59.761-6.335 115.153-32.656 158.199-75.688 49.819-49.803 77.133-115.88 77.133-186.216s-27.423-136.522-77.133-186.216c-46.682-46.667-108.010-73.782-173.577-76.912l-0.014 106.607c88.248 6.839 146.234 84.21 146.234 175.244 0 95.365-113.584 167.398-208.979 167.492l-14.544 31.644c-0.093 107.881-87.361 195.026-194.623 195.026-107.355 0-194.623-87.239-194.623-194.466l0.093-26.713h-26.909c-95.302-0.093-196.334-77.618-196.334-172.983s63.633-177.72 159.029-177.72l8.134 0.059v-104.448l-8.134-0.048c-70.359 0-136.566 27.414-186.277 77.108s-77.242 115.989-77.242 186.325c0 70.336 27.423 136.522 77.133 186.216 42.936 42.922 98.844 69.244 158.387 75.688 6.446 66.295 34.554 127.785 82.407 175.513 54.517 54.5 127.061 84.534 204.194 84.534zM365.401 526.137h52.558c0-48.258-31.869-115.371-52.558-152.714v-365.595h-51.931v308.040c-15.517-19.533-41.169-39.066-58.41-57.451l-19.54 64.345c77.949 50.661 103.445 114.901 129.881 203.375zM417.96 530.106h318.694v-208.911l-109.714 2.752v-52.228l104.49-2.752v-52.228h-52.245c28.16-49.407 45.975-82.99 96.549-120.333l-39.079-52.28c-51.148 48.833-109.714 118.419-109.714 172.613v-208.911h-104.817v208.911c5.253-52.228-59.022-129.525-110.745-173.187l-33.907 54.004c47.125 33.321 62.276 66.329 92.735 119.184h-52.245v52.228h104.49v52.228h-104.49v208.911zM679.184 373.423v104.456h-208.979v-104.456h208.979z" />
<glyph unicode="&#xe91b;" glyph-name="-voucherPrint" horiz-adv-x="960" d="M685.714 772.392v91.384c0 25.247-20.467 45.714-45.714 45.714h-365.714c-25.247 0-45.714-20.467-45.714-45.714v-91.384h-137.143c-50.495 0-91.429-40.934-91.429-91.429v-365.535c0-50.495 40.934-91.429 91.429-91.429h91.428v-228.497h548.571v228.497h91.428c50.495 0 91.429 40.934 91.429 91.429v365.535c0 50.495-40.934 91.429-91.429 91.429h-137.143zM640 315.399v-228.497h-365.714v228.497h365.714zM594.286 178.301h-274.286v-45.699h274.286v45.699zM594.286 269.699h-274.286v-45.699h274.286v45.699zM777.143 680.993c25.247 0 45.714-20.467 45.714-45.714v-274.166c0-25.247-20.467-45.714-45.714-45.714h-45.714v91.399h-548.571v-91.399h-45.714c-25.247 0-45.714 20.467-45.714 45.714v274.166c0 25.247 20.467 45.714 45.714 45.714h639.999zM274.286 635.294h-91.429v-91.399h91.429v91.399zM411.429 635.294h-91.429v-91.399h91.429v91.399zM594.286 818.092v-45.699h-274.286v45.699h274.286z" />
<glyph unicode="&#xe91c;" glyph-name="-setting" d="M354.361 918.616c20.968 0 40.472-8.769 56.494-25.325 49.389-50.861 117.795-43.776 150.047-3.999 27.864 29.254 61.858 35.568 89.443 23.501 59.141-21.677 112.709-54.719 157.501-97.513 24.242-24.904 32.043-59.069 20.55-87.621-8.011-25.957-4.528-56.403 10.31-81.237 16.37-29.394 37.547-46.091 65.271-51.843l7.105-1.964c31.486-10.804 52.523-37.322 55.031-69.171 5.712-26.378 9.125-60.402 9.125-92.251 0-31.218-3.204-62.156-10.031-97.513l-1.881-7.226c-7.282-22.941-23.216-42.087-44.373-53.316l-8.568-3.508c-33.367-9.33-57.887-27.5-70.008-50.651-15.464-27.851-18.599-57.455-9.892-90.989 10.101-30.727-1.95-67.768-29.187-86.359-40.612-35.708-90.906-66.505-151.092-92.041-9.361-3.751-19.323-5.748-29.396-5.893-20.828 0-40.333 8.769-56.355 25.255-49.458 50.931-117.795 43.916-150.117 4.069-18.181-19.082-39.497-28.131-60.604-28.131l-20.898 1.684c-66.455 24.133-120.442 57.315-165.442 100.459-24.242 24.834-32.043 58.929-20.619 87.551 8.106 27.331 4.361 56.838-10.31 81.237-16.37 29.534-37.547 46.231-65.202 51.913l-7.175 1.964c-30.531 9.691-52.236 36.98-54.962 69.101-6.124 30.409-9.181 61.364-9.126 92.392 0 31.008 3.205 62.015 10.032 97.443l1.881 7.156c7.454 23.291 23.684 42.793 44.443 53.457l8.568 3.437c33.367 9.33 57.887 27.43 69.938 50.651 15.464 27.921 18.599 57.455 9.892 91.059-9.849 32.15 1.959 67.032 29.257 86.429 40.542 35.638 90.836 66.365 151.092 91.971 12.33 4.35 20.828 5.823 29.257 5.823zM373.537 779.81c-44.429-18.833-81.264-41.319-112.716-68.771-6.534-4.234-9.53-12.288-7.367-19.804 10.541-40.463 6.404-76.875-11.787-109.691-15.527-29.848-46.072-53.133-83.418-63.406l-2.493-1.084c-5.148-3.707-8.934-9.024-10.767-15.124-4.788-23.246-7.275-46.913-7.424-70.654 0-22.714 2.437-46.97 6.914-68.371 1.020-10.216 5.724-15.695 13.657-18.434 36.269-7.476 64.547-29.277 84.211-64.719 18.644-31.047 23.121-69.798 11.901-105.525-3.003-7.648-0.567-15.58 5.61-21.915 32.688-30.87 71.404-54.544 113.679-69.513l5.214-0.057c4.862 0.117 9.507 2.049 13.034 5.422 22.838 28.25 57.746 44.401 95.828 44.401 34.058 0 68.117-15.809 95.885-44.401 9.294-9.645 13.261-7.020 18.134-5.365 44.486 18.833 81.321 41.319 112.773 68.828 7.197 5.136 9.521 13.241 7.424 19.804-10.541 40.463-6.46 76.932 11.731 109.748 15.584 29.848 46.072 53.133 83.418 63.406l2.437 1.084c5.163 3.704 8.968 9.020 10.824 15.124 5.044 26.024 7.367 48.339 7.367 70.597 0 22.771-2.437 47.027-6.857 68.314-1.19 12.784-9.067 16.893-13.657 18.434-36.212 7.476-64.49 29.277-84.211 64.719-18.733 31.875-23.063 70.289-11.901 105.582 3.003 7.705 0.567 15.637-5.61 21.972-32.47 30.59-70.835 54.134-112.716 69.17l-5.327 1.198c-5.247-0.24-10.2-2.509-13.827-6.335-43.296-53.476-132.834-60.667-191.714 0-13.204 13.583-14.451 6.677-18.248 5.365zM487.653 614.937c107.722 0 195.047-87.944 195.047-196.429s-87.326-196.429-195.047-196.429c-107.722 0-195.047 87.944-195.047 196.429s87.326 196.429 195.047 196.429zM487.653 496.686c-42.873 0-77.629-35.002-77.629-78.179s34.756-78.179 77.629-78.179c42.873 0 77.629 35.002 77.629 78.179s-34.756 78.179-77.629 78.179z" />
</font>
</defs>
</svg>
